<svg xmlns="http://www.w3.org/2000/svg" viewBox="0 0 64 64" width="64" height="64" role="img" aria-label="Металл Монтаж 33">
  <defs>
    <linearGradient id="mm-bg" x1="0" y1="0" x2="1" y2="1">
      <stop offset="0" stop-color="#25252a"/>
      <stop offset="1" stop-color="#1a1a1f"/>
    </linearGradient>
    <linearGradient id="mm-or" x1="0" y1="0" x2="1" y2="1">
      <stop offset="0" stop-color="#ff8a1f"/>
      <stop offset="1" stop-color="#f25c05"/>
    </linearGradient>
  </defs>
  <rect x="2" y="2" width="60" height="60" rx="12" fill="url(#mm-bg)"/>
  <rect x="2" y="2" width="60" height="60" rx="12" fill="none" stroke="#2b2b2b" stroke-width="1"/>
  <!-- Roof / gable -->
  <path d="M10 26 L32 12 L54 26" fill="none" stroke="url(#mm-or)" stroke-width="3.2" stroke-linecap="round" stroke-linejoin="round"/>
  <!-- M M letters -->
  <g fill="#ffffff">
    <path d="M12 48 V30 h3.2 l5.3 9.8 L25.8 30 H29 v18 h-3.2 V36.4 l-4.6 8.6 h-1.6 l-4.6-8.6 V48 z"/>
    <path d="M33 48 V30 h3.2 l5.3 9.8 L46.8 30 H50 v18 h-3.2 V36.4 l-4.6 8.6 h-1.6 l-4.6-8.6 V48 z"/>
  </g>
  <!-- 33 badge -->
  <text x="32" y="60" text-anchor="middle" font-family="ui-sans-serif, system-ui, Arial, sans-serif" font-weight="900" font-size="9" fill="#ff8a1f" letter-spacing="1">33</text>
</svg>
